<?xml version="1.0"?>
<!--Icons from directory ""-->
<svg xmlns="http://www.w3.org/2000/svg" width="32" height="384" viewBox="0 0 32 384"><svg viewBox="0 0 16 16" width="32" height="32" id="email-g" y="0"><path d="m15 2h-14c-0.6 0-1 0.4-1 1v10c0 0.6 0.4 1 1 1h14c0.6 0 1-0.4 1-1v-10c0-0.6-0.4-1-1-1zm-0.9 1l-6.1 5-6.1-5h12.2zm-13.1 9.5v-9l6.7 5.5c0.1 0.1 0.2 0.2 0.3 0.2s0.2 0 0.3-0.1l6.7-5.6v9c0 0.3-0.2 0.5-0.5 0.5h-13c-0.3 0-0.5-0.2-0.5-0.5z" fill="#80c89b"/></svg><svg viewBox="0 0 16 16" width="32" height="32" id="email-r" y="32"><path d="m15 2h-14c-0.6 0-1 0.4-1 1v10c0 0.6 0.4 1 1 1h14c0.6 0 1-0.4 1-1v-10c0-0.6-0.4-1-1-1zm-0.9 1l-6.1 5-6.1-5h12.2zm-13.1 9.5v-9l6.7 5.5c0.1 0.1 0.2 0.2 0.3 0.2s0.2 0 0.3-0.1l6.7-5.6v9c0 0.3-0.2 0.5-0.5 0.5h-13c-0.3 0-0.5-0.2-0.5-0.5z" fill="#ED6351"/></svg><svg viewBox="0 0 16 16" width="32" height="32" id="email" y="64"><path d="m15 2h-14c-0.6 0-1 0.4-1 1v10c0 0.6 0.4 1 1 1h14c0.6 0 1-0.4 1-1v-10c0-0.6-0.4-1-1-1zm-0.9 1l-6.1 5-6.1-5h12.2zm-13.1 9.5v-9l6.7 5.5c0.1 0.1 0.2 0.2 0.3 0.2s0.2 0 0.3-0.1l6.7-5.6v9c0 0.3-0.2 0.5-0.5 0.5h-13c-0.3 0-0.5-0.2-0.5-0.5z" fill="#dfe4ed"/></svg><svg viewBox="0 0 16 20" width="32" height="32" id="lock-g" y="96"><path fill="#80c89b" clip-rule="evenodd" d="m13.5 7.6h-8.7l-0.4-1.5c-0.5-2 0.4-4 2.6-4.6 2.1-0.6 4 0.7 4.6 2.7l0.3 1c0.1 0.3 0.4 0.5 0.8 0.4 0.2 0 0.4-0.3 0.3-0.6l-0.3-1c-0.7-2.8-3.2-4.4-6-3.7-2.8 0.8-4.2 3.5-3.5 6.2l0.2 1.1h-1c-1.3 0-2.4 1.1-2.4 2.4v7.4c0 1.4 1.1 2.5 2.5 2.5h11.1c1.4 0 2.5-1.1 2.5-2.5v-7.4c-0.1-1.3-1.2-2.4-2.6-2.4zm1.3 9.8c0 0.7-0.6 1.2-1.2 1.2h-11.1c-0.7 0-1.2-0.6-1.2-1.2v-7.4c0-0.7 0.6-1.2 1.2-1.2h11.1c0.7 0 1.2 0.6 1.2 1.2v7.4zm-6.8-6.2c-0.7 0-1.2 0.5-1.2 1.2 0 0.4 0.3 0.8 0.6 1v2c0 0.3 0.3 0.6 0.6 0.6s0.6-0.3 0.6-0.6v-2c0.4-0.2 0.6-0.6 0.6-1 0-0.6-0.5-1.2-1.2-1.2z" fill-rule="evenodd"/></svg><svg viewBox="0 0 16 20" width="32" height="32" id="lock-r" y="128"><path fill="#ED6351" clip-rule="evenodd" d="m13.5 7.6h-8.7l-0.4-1.5c-0.5-2 0.4-4 2.6-4.6 2.1-0.6 4 0.7 4.6 2.7l0.3 1c0.1 0.3 0.4 0.5 0.8 0.4 0.2 0 0.4-0.3 0.3-0.6l-0.3-1c-0.7-2.8-3.2-4.4-6-3.7-2.8 0.8-4.2 3.5-3.5 6.2l0.2 1.1h-1c-1.3 0-2.4 1.1-2.4 2.4v7.4c0 1.4 1.1 2.5 2.5 2.5h11.1c1.4 0 2.5-1.1 2.5-2.5v-7.4c-0.1-1.3-1.2-2.4-2.6-2.4zm1.3 9.8c0 0.7-0.6 1.2-1.2 1.2h-11.1c-0.7 0-1.2-0.6-1.2-1.2v-7.4c0-0.7 0.6-1.2 1.2-1.2h11.1c0.7 0 1.2 0.6 1.2 1.2v7.4zm-6.8-6.2c-0.7 0-1.2 0.5-1.2 1.2 0 0.4 0.3 0.8 0.6 1v2c0 0.3 0.3 0.6 0.6 0.6s0.6-0.3 0.6-0.6v-2c0.4-0.2 0.6-0.6 0.6-1 0-0.6-0.5-1.2-1.2-1.2z" fill-rule="evenodd"/></svg><svg viewBox="0 0 16 20" width="32" height="32" id="lock" y="160"><path fill="#dfe4ed" clip-rule="evenodd" d="m13.5 7.6h-8.7l-0.4-1.5c-0.5-2 0.4-4 2.6-4.6 2.1-0.6 4 0.7 4.6 2.7l0.3 1c0.1 0.3 0.4 0.5 0.8 0.4 0.2 0 0.4-0.3 0.3-0.6l-0.3-1c-0.7-2.8-3.2-4.4-6-3.7-2.8 0.8-4.2 3.5-3.5 6.2l0.2 1.1h-1c-1.3 0-2.4 1.1-2.4 2.4v7.4c0 1.4 1.1 2.5 2.5 2.5h11.1c1.4 0 2.5-1.1 2.5-2.5v-7.4c-0.1-1.3-1.2-2.4-2.6-2.4zm1.3 9.8c0 0.7-0.6 1.2-1.2 1.2h-11.1c-0.7 0-1.2-0.6-1.2-1.2v-7.4c0-0.7 0.6-1.2 1.2-1.2h11.1c0.7 0 1.2 0.6 1.2 1.2v7.4zm-6.8-6.2c-0.7 0-1.2 0.5-1.2 1.2 0 0.4 0.3 0.8 0.6 1v2c0 0.3 0.3 0.6 0.6 0.6s0.6-0.3 0.6-0.6v-2c0.4-0.2 0.6-0.6 0.6-1 0-0.6-0.5-1.2-1.2-1.2z" fill-rule="evenodd"/></svg><svg viewBox="0 0 16 16" width="32" height="32" id="network-g" y="192"><path fill="#80c89b" clip-rule="evenodd" d="m16 8c0-4.2-3.3-7.7-7.5-8h-0.5c-4.4 0-8 3.6-8 8s3.6 8 8 8h0.5c4.2-0.3 7.5-3.8 7.5-8zm-1.5 2.6c-0.3-0.1-1-0.3-2.2-0.4 0.1-0.7 0.2-1.4 0.2-2.2 0-0.6 0-1.2-0.1-1.7 1.5-0.2 2.2-0.4 2.3-0.4l-0.2-0.5c0.3 0.8 0.5 1.7 0.5 2.6s-0.2 1.8-0.5 2.6zm-10-2.6c0-0.6 0-1.1 0.1-1.6 0.8 0.1 1.8 0.1 2.9 0.1v3.5c-1.1 0-2.1 0.1-2.8 0.1-0.2-0.7-0.2-1.4-0.2-2.1zm4-6.9c1.2 0.4 2.3 2.1 2.7 4.3-0.8 0.1-1.7 0.1-2.7 0.1v-4.4zm-1 0v4.4c-1.1 0-2-0.1-2.7-0.1 0.4-2.2 1.5-3.9 2.7-4.3zm0 9.9v4c-1.1-0.4-2.1-1.8-2.6-3.8 0.7-0.2 1.6-0.2 2.6-0.2zm1 3.9v-4c1 0 1.9 0.1 2.6 0.1-0.5 2.1-1.5 3.6-2.6 3.9zm0-4.9v-3.5c1.1 0 2.1-0.1 2.9-0.1 0.1 0.5 0.1 1.1 0.1 1.6 0 0.7-0.1 1.4-0.2 2.1-0.8-0.1-1.7-0.1-2.8-0.1zm5.8-5.1c-0.2 0-0.8 0.2-2 0.4-0.3-1.5-0.8-2.8-1.5-3.7 1.5 0.6 2.7 1.8 3.5 3.3zm-8.7-3.5c-0.8 1-1.5 2.3-1.8 3.9-1.1-0.1-1.8-0.3-2.1-0.3 0.8-1.7 2.2-2.9 3.9-3.6zm-4.3 4.5c0.2 0.1 0.9 0.2 2.3 0.4-0.1 0.5-0.1 1.1-0.1 1.7 0 0.8 0.1 1.5 0.2 2.2-1.2 0.1-1.9 0.3-2.2 0.4-0.3-0.9-0.5-1.7-0.5-2.6 0-0.7 0.1-1.4 0.3-2.1zm0.6 5.5c0.4-0.1 1-0.2 2-0.3 0.4 1.4 1 2.6 1.7 3.4-1.6-0.5-2.9-1.6-3.7-3.1zm8.9 3c0.6-0.8 1.1-2 1.4-3.3 1 0.1 1.6 0.2 1.9 0.3-0.8 1.4-1.9 2.4-3.3 3z" fill-rule="evenodd"/></svg><svg viewBox="0 0 16 16" width="32" height="32" id="network-r" y="224"><path fill="#ED6351" clip-rule="evenodd" d="m16 8c0-4.2-3.3-7.7-7.5-8h-0.5c-4.4 0-8 3.6-8 8s3.6 8 8 8h0.5c4.2-0.3 7.5-3.8 7.5-8zm-1.5 2.6c-0.3-0.1-1-0.3-2.2-0.4 0.1-0.7 0.2-1.4 0.2-2.2 0-0.6 0-1.2-0.1-1.7 1.5-0.2 2.2-0.4 2.3-0.4l-0.2-0.5c0.3 0.8 0.5 1.7 0.5 2.6s-0.2 1.8-0.5 2.6zm-10-2.6c0-0.6 0-1.1 0.1-1.6 0.8 0.1 1.8 0.1 2.9 0.1v3.5c-1.1 0-2.1 0.1-2.8 0.1-0.2-0.7-0.2-1.4-0.2-2.1zm4-6.9c1.2 0.4 2.3 2.1 2.7 4.3-0.8 0.1-1.7 0.1-2.7 0.1v-4.4zm-1 0v4.4c-1.1 0-2-0.1-2.7-0.1 0.4-2.2 1.5-3.9 2.7-4.3zm0 9.9v4c-1.1-0.4-2.1-1.8-2.6-3.8 0.7-0.2 1.6-0.2 2.6-0.2zm1 3.9v-4c1 0 1.9 0.1 2.6 0.1-0.5 2.1-1.5 3.6-2.6 3.9zm0-4.9v-3.5c1.1 0 2.1-0.1 2.9-0.1 0.1 0.5 0.1 1.1 0.1 1.6 0 0.7-0.1 1.4-0.2 2.1-0.8-0.1-1.7-0.1-2.8-0.1zm5.8-5.1c-0.2 0-0.8 0.2-2 0.4-0.3-1.5-0.8-2.8-1.5-3.7 1.5 0.6 2.7 1.8 3.5 3.3zm-8.7-3.5c-0.8 1-1.5 2.3-1.8 3.9-1.1-0.1-1.8-0.3-2.1-0.3 0.8-1.7 2.2-2.9 3.9-3.6zm-4.3 4.5c0.2 0.1 0.9 0.2 2.3 0.4-0.1 0.5-0.1 1.1-0.1 1.7 0 0.8 0.1 1.5 0.2 2.2-1.2 0.1-1.9 0.3-2.2 0.4-0.3-0.9-0.5-1.7-0.5-2.6 0-0.7 0.1-1.4 0.3-2.1zm0.6 5.5c0.4-0.1 1-0.2 2-0.3 0.4 1.4 1 2.6 1.7 3.4-1.6-0.5-2.9-1.6-3.7-3.1zm8.9 3c0.6-0.8 1.1-2 1.4-3.3 1 0.1 1.6 0.2 1.9 0.3-0.8 1.4-1.9 2.4-3.3 3z" fill-rule="evenodd"/></svg><svg viewBox="0 0 16 16" width="32" height="32" id="network" y="256"><path fill="#dfe4ed" clip-rule="evenodd" d="m16 8c0-4.2-3.3-7.7-7.5-8h-0.5c-4.4 0-8 3.6-8 8s3.6 8 8 8h0.5c4.2-0.3 7.5-3.8 7.5-8zm-1.5 2.6c-0.3-0.1-1-0.3-2.2-0.4 0.1-0.7 0.2-1.4 0.2-2.2 0-0.6 0-1.2-0.1-1.7 1.5-0.2 2.2-0.4 2.3-0.4l-0.2-0.5c0.3 0.8 0.5 1.7 0.5 2.6s-0.2 1.8-0.5 2.6zm-10-2.6c0-0.6 0-1.1 0.1-1.6 0.8 0.1 1.8 0.1 2.9 0.1v3.5c-1.1 0-2.1 0.1-2.8 0.1-0.2-0.7-0.2-1.4-0.2-2.1zm4-6.9c1.2 0.4 2.3 2.1 2.7 4.3-0.8 0.1-1.7 0.1-2.7 0.1v-4.4zm-1 0v4.4c-1.1 0-2-0.1-2.7-0.1 0.4-2.2 1.5-3.9 2.7-4.3zm0 9.9v4c-1.1-0.4-2.1-1.8-2.6-3.8 0.7-0.2 1.6-0.2 2.6-0.2zm1 3.9v-4c1 0 1.9 0.1 2.6 0.1-0.5 2.1-1.5 3.6-2.6 3.9zm0-4.9v-3.5c1.1 0 2.1-0.1 2.9-0.1 0.1 0.5 0.1 1.1 0.1 1.6 0 0.7-0.1 1.4-0.2 2.1-0.8-0.1-1.7-0.1-2.8-0.1zm5.8-5.1c-0.2 0-0.8 0.2-2 0.4-0.3-1.5-0.8-2.8-1.5-3.7 1.5 0.6 2.7 1.8 3.5 3.3zm-8.7-3.5c-0.8 1-1.5 2.3-1.8 3.9-1.1-0.1-1.8-0.3-2.1-0.3 0.8-1.7 2.2-2.9 3.9-3.6zm-4.3 4.5c0.2 0.1 0.9 0.2 2.3 0.4-0.1 0.5-0.1 1.1-0.1 1.7 0 0.8 0.1 1.5 0.2 2.2-1.2 0.1-1.9 0.3-2.2 0.4-0.3-0.9-0.5-1.7-0.5-2.6 0-0.7 0.1-1.4 0.3-2.1zm0.6 5.5c0.4-0.1 1-0.2 2-0.3 0.4 1.4 1 2.6 1.7 3.4-1.6-0.5-2.9-1.6-3.7-3.1zm8.9 3c0.6-0.8 1.1-2 1.4-3.3 1 0.1 1.6 0.2 1.9 0.3-0.8 1.4-1.9 2.4-3.3 3z" fill-rule="evenodd"/></svg><svg viewBox="0 0 32 32" width="32" height="32" id="people-g" y="288"><path fill="#80c89b" clip-rule="evenodd" d="m23.305 26.1l-6.29-3.484c2.338-1.839 2.973-5.454 2.973-7.48v-4.218c0-2.793-3.711-5.904-7.439-5.904-3.727 0-7.536 3.111-7.536 5.904v4.218c0 1.843 0.779 5.571 3.141 7.465l-6.453 3.499s-1.686 0.751-1.686 1.688v2.376c0 0.932 0.756 1.688 1.686 1.688h21.604c0.931 0 1.687-0.756 1.687-1.688v-2.376c0-0.993-1.687-1.688-1.687-1.688zm-0.311 3.91h-20.98v-1.786c0.143-0.104 0.343-0.225 0.502-0.297 0.047-0.021 0.094-0.044 0.138-0.069l6.453-3.5a1.997 1.997 0 0 0 0.298 -3.315c-1.675-1.343-2.393-4.318-2.393-5.905v-4.218c0-1.435 2.705-3.906 5.538-3.906 2.886 0 5.441 2.437 5.441 3.906v4.218c0 1.565-0.486 4.553-2.21 5.909a2 2 0 0 0 0.278 3.325l6.29 3.484c0.056 0.03 0.126 0.063 0.184 0.089 0.147 0.062 0.329 0.167 0.461 0.258v1.807zm7.303-8.744l-6.383-3.484c2.338-1.839 3.066-5.454 3.066-7.48v-4.218c0-2.793-3.805-5.936-7.533-5.936-2.422 0-4.9 1.317-6.341 3.004 0.823 0.051 1.729 0.052 2.512 0.302a6.212 6.212 0 0 1 3.829 -1.307c2.886 0 5.535 2.468 5.535 3.938v4.219c0 1.565-0.58 4.553-2.303 5.909a1.998 1.998 0 0 0 0.278 3.324l6.383 3.484c0.056 0.03 0.126 0.063 0.184 0.089 0.147 0.062 0.329 0.167 0.461 0.258v1.777h-4.033c0.609 0.46 0.793 1.117 1.029 1.998h3.315c0.931 0 1.687-0.756 1.687-1.688v-2.5c0.001-0.994-1.686-1.689-1.686-1.689z" fill-rule="evenodd"/></svg><svg viewBox="0 0 32 32" width="32" height="32" id="people-r" y="320"><path fill="#ED6351" clip-rule="evenodd" d="m23.305 26.1l-6.29-3.484c2.338-1.839 2.973-5.454 2.973-7.48v-4.218c0-2.793-3.711-5.904-7.439-5.904-3.727 0-7.536 3.111-7.536 5.904v4.218c0 1.843 0.779 5.571 3.141 7.465l-6.453 3.499s-1.686 0.751-1.686 1.688v2.376c0 0.932 0.756 1.688 1.686 1.688h21.604c0.931 0 1.687-0.756 1.687-1.688v-2.376c0-0.993-1.687-1.688-1.687-1.688zm-0.311 3.91h-20.98v-1.786c0.143-0.104 0.343-0.225 0.502-0.297 0.047-0.021 0.094-0.044 0.138-0.069l6.453-3.5a1.997 1.997 0 0 0 0.298 -3.315c-1.675-1.343-2.393-4.318-2.393-5.905v-4.218c0-1.435 2.705-3.906 5.538-3.906 2.886 0 5.441 2.437 5.441 3.906v4.218c0 1.565-0.486 4.553-2.21 5.909a2 2 0 0 0 0.278 3.325l6.29 3.484c0.056 0.03 0.126 0.063 0.184 0.089 0.147 0.062 0.329 0.167 0.461 0.258v1.807zm7.303-8.744l-6.383-3.484c2.338-1.839 3.066-5.454 3.066-7.48v-4.218c0-2.793-3.805-5.936-7.533-5.936-2.422 0-4.9 1.317-6.341 3.004 0.823 0.051 1.729 0.052 2.512 0.302a6.212 6.212 0 0 1 3.829 -1.307c2.886 0 5.535 2.468 5.535 3.938v4.219c0 1.565-0.58 4.553-2.303 5.909a1.998 1.998 0 0 0 0.278 3.324l6.383 3.484c0.056 0.03 0.126 0.063 0.184 0.089 0.147 0.062 0.329 0.167 0.461 0.258v1.777h-4.033c0.609 0.46 0.793 1.117 1.029 1.998h3.315c0.931 0 1.687-0.756 1.687-1.688v-2.5c0.001-0.994-1.686-1.689-1.686-1.689z" fill-rule="evenodd"/></svg><svg viewBox="0 0 32 32" width="32" height="32" id="people" y="352"><path fill="#dfe4ed" clip-rule="evenodd" d="m23.305 26.1l-6.29-3.484c2.338-1.839 2.973-5.454 2.973-7.48v-4.218c0-2.793-3.711-5.904-7.439-5.904-3.727 0-7.536 3.111-7.536 5.904v4.218c0 1.843 0.779 5.571 3.141 7.465l-6.453 3.499s-1.686 0.751-1.686 1.688v2.376c0 0.932 0.756 1.688 1.686 1.688h21.604c0.931 0 1.687-0.756 1.687-1.688v-2.376c0-0.993-1.687-1.688-1.687-1.688zm-0.311 3.91h-20.98v-1.786c0.143-0.104 0.343-0.225 0.502-0.297 0.047-0.021 0.094-0.044 0.138-0.069l6.453-3.5a1.997 1.997 0 0 0 0.298 -3.315c-1.675-1.343-2.393-4.318-2.393-5.905v-4.218c0-1.435 2.705-3.906 5.538-3.906 2.886 0 5.441 2.437 5.441 3.906v4.218c0 1.565-0.486 4.553-2.21 5.909a2 2 0 0 0 0.278 3.325l6.29 3.484c0.056 0.03 0.126 0.063 0.184 0.089 0.147 0.062 0.329 0.167 0.461 0.258v1.807zm7.303-8.744l-6.383-3.484c2.338-1.839 3.066-5.454 3.066-7.48v-4.218c0-2.793-3.805-5.936-7.533-5.936-2.422 0-4.9 1.317-6.341 3.004 0.823 0.051 1.729 0.052 2.512 0.302a6.212 6.212 0 0 1 3.829 -1.307c2.886 0 5.535 2.468 5.535 3.938v4.219c0 1.565-0.58 4.553-2.303 5.909a1.998 1.998 0 0 0 0.278 3.324l6.383 3.484c0.056 0.03 0.126 0.063 0.184 0.089 0.147 0.062 0.329 0.167 0.461 0.258v1.777h-4.033c0.609 0.46 0.793 1.117 1.029 1.998h3.315c0.931 0 1.687-0.756 1.687-1.688v-2.5c0.001-0.994-1.686-1.689-1.686-1.689z" fill-rule="evenodd"/></svg></svg>
