<?xml version="1.0"?>
<!--Icons from directory ""-->
<svg xmlns="http://www.w3.org/2000/svg" width="32" height="160" viewBox="0 0 32 160"><svg viewBox="0 0 24 24" width="32" height="32" id="1" y="0"><path d="m22.675 0h-21.35c-0.732 0-1.325 0.593-1.325 1.325v21.35c0 0.732 0.593 1.325 1.325 1.325h11.494v-9.294h-3.128v-3.622h3.128v-2.671c0-3.1 1.893-4.788 4.659-4.788 1.324 0 2.463 0.098 2.794 0.143v3.24h-1.917c-1.504 0-1.795 0.715-1.795 1.763v2.313h3.586l-0.467 3.622h-3.12v9.294h6.116c0.732 0 1.325-0.593 1.325-1.325v-21.35c0-0.732-0.593-1.325-1.325-1.325z" fill="#3A5A99"/></svg><svg viewBox="0 0 24 24" width="32" height="32" id="2" y="32"><path d="m8.316 0.657a12.157 12.157 0 0 1 8.087 0.071 11.665 11.665 0 0 1 3.866 2.394c-0.374 0.407-0.78 0.788-1.168 1.182l-2.207 2.206a6.54 6.54 0 0 0 -2.588 -1.523 7.087 7.087 0 0 0 -3.524 -0.142 7.17 7.17 0 0 0 -3.589 1.994 7.448 7.448 0 0 0 -1.742 2.833c-1.311-1.019-2.621-2.032-3.937-3.051 1.386-2.776 3.879-4.964 6.802-5.964z" fill="#EA4335"/><path d="m0.475 9.628a11.971 11.971 0 0 1 1.045 -3.02c1.31 1.02 2.62 2.032 3.937 3.052a7.242 7.242 0 0 0 0 4.673c-1.31 1.02-2.62 2.04-3.93 3.053a11.937 11.937 0 0 1 -1.052 -7.758z" fill="#FBBC05"/><path d="m12.24 9.75h11.295c0.374 2.111 0.29 4.312-0.303 6.377-0.549 1.891-1.588 3.647-3.04 4.983l-3.815-2.962a5.654 5.654 0 0 0 2.401 -3.711h-6.544c0.006-1.562 0.006-3.124 0.006-4.686z" fill="#4285F4"/><path d="m1.514 17.392c1.31-1.013 2.62-2.033 3.93-3.052a7.46 7.46 0 0 0 2.75 3.685c0.8 0.561 1.716 0.962 2.672 1.155 0.942 0.194 1.916 0.168 2.865 0.007a6.877 6.877 0 0 0 2.646 -1.046l3.815 2.962c-1.375 1.272-3.098 2.137-4.918 2.556-2.014 0.458-4.144 0.471-6.144-0.064a11.861 11.861 0 0 1 -4.363 -2.201 12.087 12.087 0 0 1 -3.253 -4.002z" fill="#34A853"/></svg><svg viewBox="0 0 32 32" width="32" height="32" id="3" y="64"><path fill="#528FCC" clip-rule="evenodd" d="m24.414 18.973a0.995 0.995 0 0 0 -1.32 0.506c-0.021 0.045-2.066 4.507-7.17 4.566l-0.094 0.001c-4.802 0-6.873-4.387-6.959-4.575a1 1 0 0 0 -1.821 0.827c0.106 0.236 2.668 5.748 8.776 5.748l0.121-0.001c6.371-0.075 8.87-5.521 8.973-5.752a0.999 0.999 0 0 0 -0.506 -1.32zm-8.414-18.973c-8.837 0-16 7.163-16 16s7.163 16 16 16 16-7.163 16-16-7.163-16-16-16zm0 30c-7.72 0-14-6.28-14-14s6.28-14 14-14 14 6.28 14 14-6.28 14-14 14zm-5.016-15.005a1.995 1.995 0 1 0 0 -3.99 1.995 1.995 0 0 0 0 3.99zm10 0a1.995 1.995 0 1 0 0 -3.99 1.995 1.995 0 0 0 0 3.99z" fill-rule="evenodd"/></svg><svg viewBox="0 0 32 32" width="32" height="32" id="4" y="96"><path d="m31.997 7.015a1.002 1.002 0 0 0 -0.468 -0.779l-8.921-5.567a1 1 0 0 0 -1.159 0.071l-5.449 4.409-5.449-4.409a1 1 0 0 0 -1.159 -0.071l-8.921 5.567a0.999 0.999 0 0 0 -0.468 0.779c-0.023 0.32 0.108 0.63 0.354 0.837l5.168 4.342-4.427 3.478a1.002 1.002 0 0 0 0.063 1.62l4.101 2.734a0.988 0.988 0 0 0 -0.334 0.735v4.015c0 0.348 0.181 0.671 0.477 0.853l10.071 5.707a0.995 0.995 0 0 0 1.049 -0.001l9.954-5.707c0.296-0.183 0.476-0.505 0.476-0.852v-4.709c0-0.063-0.025-0.118-0.036-0.177l3.897-2.598a1 1 0 0 0 0.065 -1.619l-4.408-3.477 5.171-4.344a0.997 0.997 0 0 0 0.353 -0.837zm-8.969 5.189l-7.028 4.404-7.028-4.404 7.028-4.573 7.028 4.573zm-20.328-4.998l7.146-4.46 4.454 3.602-7.111 4.628-4.489-3.77zm4.477 6.236l7.068 4.429-4.006 3.066-6.819-4.545 3.757-2.95zm-0.248 7.695l2.795 1.863c0.355 0.237 0.823 0.221 1.163-0.038l4.048-3.098v8.846l-8.006-4.495v-3.078zm18.023 3.079l-8.016 4.557v-9.002l4.149 3.19a0.999 0.999 0 0 0 1.165 0.039l2.701-1.8v3.016zm3.605-7.826l-6.82 4.546-3.986-3.064 7.069-4.43 3.737 2.948zm-3.746-5.413l-7.111-4.628 4.454-3.603 7.147 4.46-4.49 3.771z" fill="#528FCC"/></svg><svg viewBox="0 0 32 32" width="32" height="32" id="5" y="128"><path fill="#528FCC" clip-rule="evenodd" d="m31.989 9.078c0.015-0.739-0.185-2.464-2.433-3.064l-22.367-4.499-0.208-0.021c-1.654 0-3 1.346-3 3v4.022l-1-0.002a3.002 3.002 0 0 0 -2.988 2.998v15.994c0 1.654 1.346 3 3 3h26.015c1.654 0 3-1.346 3-3l-0.019-18.428zm-26.008-4.584a1 1 0 0 1 0.913 -0.996l22.062 4.465c0.008 0.004-0.164 0.56-0.965 0.55h-22.01v-4.019zm24.026 23.012a1 1 0 0 1 -1 1h-26.014a1 1 0 0 1 -1 -1v-15.994a1 1 0 0 1 1 -1h25.002c0.982 0 2.013-0.334 2.013-0.997v17.991zm-24.012-9.99a2 2 0 1 0 0.001 4.001 2 2 0 0 0 -0.001 -4.001z" fill-rule="evenodd"/></svg></svg>
